<?xml version="1.0" encoding="UTF-8"?>
<svg xmlns="http://www.w3.org/2000/svg" version="1.1" viewBox="0 0 23.46 23.67">
  <!-- Generator: Adobe Illustrator 30.5.1, SVG Export Plug-In . SVG Version: 2.1.4 Build 3)  -->
  <defs>
    <style>
      .st0 {
        stroke-width: .5px;
      }

      .st0, .st1, .st2, .st3, .st4, .st5, .st6, .st7, .st8, .st9, .st10, .st11, .st12, .st13 {
        stroke: #FFFFFF;
        stroke-miterlimit: 10;
      }

      .st0, .st1, .st2, .st4, .st5, .st8, .st9, .st10, .st11, .st12, .st13 {
        fill: none;
      }

      .st2 {
        stroke-dasharray: 3;
      }

      .st2, .st11, .st12, .st13 {
        stroke-width: 1.5px;
      }

      .st3, .st9 {
        stroke-width: .25px;
      }

      .st4, .st7, .st10 {
        stroke-width: .75px;
      }

      .st5 {
        stroke-dasharray: 2;
      }

      .st8 {
        stroke-width: 2px;
      }

      .st10 {
        stroke-dasharray: 1.94 1.94;
      }

      .st14 {
        display: none;
      }

      .st12 {
        stroke-dasharray: 4.64 4.64;
      }

      .st13 {
        stroke-dasharray: 3.3 3.3;
      }
    </style>
  </defs>
  <g id="move" class="st14">
    <g>
      <polygon points="11.93 0 8.93 4.72 14.6 4.72 11.93 0"/>
      <polygon points="11.6 23.67 14.6 18.95 8.93 18.95 11.6 23.67"/>
      <polygon points="23.21 11.66 18.43 8.69 18.43 14.31 23.21 11.66"/>
      <polygon points="0 11.34 4.77 14.31 4.77 8.69 0 11.34"/>
      <g>
        <rect x="10.98" y="1.69" width="1.56" height="19.62"/>
        <rect x="1.85" y="10.72" width="19.83" height="1.55"/>
      </g>
    </g>
  </g>
  <g id="crop" class="st14">
    <polyline class="st8" points="7.17 4.82 18.26 4.82 18.26 22.42"/>
    <polyline class="st8" points="15.71 18.35 4.62 18.35 4.62 1.25"/>
    <line class="st8" x1="20.76" y1="18.35" x2="23.13" y2="18.35"/>
    <line class="st8" x1=".08" y1="4.82" x2="2.44" y2="4.82"/>
  </g>
  <g id="select_x5F_rect" class="st14">
    <g>
      <polyline class="st11" points="21.07 16.79 21.07 19.29 18.57 19.29"/>
      <line class="st12" x1="13.92" y1="19.29" x2="6.96" y2="19.29"/>
      <polyline class="st11" points="4.64 19.29 2.14 19.29 2.14 16.79"/>
      <line class="st13" x1="2.14" y1="13.49" x2="2.14" y2="8.53"/>
      <polyline class="st11" points="2.14 6.88 2.14 4.38 4.64 4.38"/>
      <line class="st12" x1="9.28" y1="4.38" x2="16.24" y2="4.38"/>
      <polyline class="st11" points="18.57 4.38 21.07 4.38 21.07 6.88"/>
      <line class="st13" x1="21.07" y1="10.18" x2="21.07" y2="15.14"/>
    </g>
  </g>
  <g id="select_x5F_ellipse" class="st14">
    <circle class="st2" cx="11.6" cy="11.84" r="10.51"/>
  </g>
  <g id="lasso_x5F_free" class="st14">
    <path class="st1" d="M5.38,22.74s1.67-.88,1.49-4.04S1.07,14.13,1.78,8.24,10.66.85,14.61.85s9.85,3.34,8,8c-1.85,4.66-5.89,6.77-13.19,7.47"/>
    <path class="st1" d="M5.65,19.05s-4.66.79-5.1-2.81,2.81-3.6,5.1-3.34,6.33,4.48,0,6.15Z"/>
  </g>
  <g id="lasso_x5F_poly" class="st14">
    <polygon class="st1" points="7.36 15.84 1.23 2.99 14.31 10.42 21.98 6.35 18.5 16.79 7.36 15.84"/>
    <path class="st1" d="M1.23,19.54s3.7-4.78,4.92-6.22,3.05-1.03,3.64-.26.83,1.78,0,2.89-4.02,6.01-4.02,6.01"/>
  </g>
  <g id="magic_x5F_wand" class="st14">
    <rect class="st1" x="8.77" y="3.95" width="2.83" height="19.14" rx="1.41" ry="1.41" transform="translate(12.23 -3.28) rotate(43.92)"/>
    <rect class="st6" x="6.28" y="10.13" width="2.83" height="11.96" rx="1.41" ry="1.41" transform="translate(13.32 -.83) rotate(43.92)"/>
    <path d="M8.64,2.23c.83,1.67.96,2.17,2.96,2.96-1.96.96-2.13,1.63-2.88,2.88-.79-1.75-1.17-1.92-2.79-2.79,1.33-.54,2.13-1,2.71-3.04Z"/>
    <path d="M20.31,9.04c.39.79.45,1.03,1.4,1.4-.93.45-1.01.77-1.36,1.36-.37-.83-.55-.91-1.32-1.32.63-.26,1.01-.47,1.28-1.44Z"/>
    <path d="M20.14,2.04c.01,1.13-.05,1.44.84,2.41-1.33,0-1.6.33-2.34.81.03-1.17-.13-1.36-.79-2.27.87.06,1.43.02,2.29-.95Z"/>
  </g>
  <g id="lasso_x5F_magnetic" class="st14">
    <polygon class="st1" points="7.36 16.19 1.23 3.35 14.31 10.78 21.98 6.71 18.5 17.14 7.36 16.19"/>
    <path class="st1" d="M1.23,19.89s3.7-4.78,4.92-6.22,3.05-1.03,3.64-.26.83,1.78,0,2.89-4.02,6.01-4.02,6.01"/>
    <g>
      <path class="st4" d="M11.43.74S20.15.03,19.15,5.32s-8.81,1.57-8.81,1.57l.75-1.32s6.23,3.32,6.81-.38-6.31-3.24-6.31-3.24l-.15-1.22Z"/>
      <path d="M13.2.73s6.98-.02,5.94,4.59-6.86,2.18-6.86,2.18l.39-1.22s4.64,2.61,5.23-1.08-4.54-3.27-4.54-3.27l-.15-1.2Z"/>
    </g>
  </g>
  <g id="select_x5F_quick" class="st14">
    <g>
      <path d="M12.32,20.47s.84-.33,1.14-1.32-.11-2.37,1.82-4.55c1.66-1.29,2.95-.54,3.56-.03s1.5,2.28-.87,4.76c-3.08,2.41-5.65,1.14-5.65,1.14Z"/>
      <path d="M18.53,13.03s1.35.1,1.69,1.52c2.19-2.6,3.05-3.63,3.05-3.63l-1.61-1.38-3.13,3.48Z"/>
    </g>
    <path class="st5" d="M16.31,11.73c5.88,6.35-3.43,8.12-7.66,8.12S.99,16.21.99,11.73,4.42,3.6,8.65,3.6s1.78,1.78,7.66,8.12Z"/>
  </g>
  <g id="remove_x5F_bg" class="st14">
    <rect x="1" y="5.67" width="4.35" height="4.35"/>
    <rect x="5.35" y="10.02" width="4.35" height="4.35"/>
    <rect x="9.71" y="5.67" width="4.35" height="4.35"/>
    <rect x="14.06" y="10.02" width="4.35" height="4.35"/>
    <rect x="18.41" y="5.67" width="4.35" height="4.35"/>
    <rect x="9.71" y="14.38" width="4.35" height="4.35"/>
    <rect x="1" y="14.38" width="4.35" height="4.35"/>
    <rect x="18.41" y="14.38" width="4.35" height="4.35"/>
  </g>
  <g id="brush" class="st14">
    <g>
      <path d="M3.86,21.17s.84-.33,1.14-1.32-.11-2.37,1.82-4.55c1.66-1.29,2.95-.54,3.56-.03s1.5,2.28-.87,4.76c-3.08,2.41-5.65,1.14-5.65,1.14Z"/>
      <path d="M10.08,13.73s1.35.1,1.69,1.52c2.19-2.6,8.33-11.52,8.33-11.52l-.46-.65-9.56,10.64Z"/>
    </g>
  </g>
  <g id="pencil" class="st14">
    <g>
      <rect class="st3" x="10.02" y="2.65" width="3.99" height="17.76" transform="translate(15 27.92) rotate(-144.13)"/>
      <rect class="st3" x="16.29" y="1.62" width="3.99" height="2.49" transform="translate(31.42 15.91) rotate(-144.13)"/>
      <polygon class="st9" points="4.3 22.21 8.05 20.27 4.96 18.03 4.3 22.21"/>
    </g>
  </g>
  <g id="eraser" class="st14">
    <rect class="st1" x="7.97" y="2.39" width="7.02" height="16.5" transform="translate(11.97 26.29) rotate(-134.66)"/>
    <rect class="st6" x="10.66" y="3.52" width="7.02" height="8.93" transform="translate(18.45 23.67) rotate(-134.66)"/>
    <rect class="st6" x="3.14" y="18.94" width="17.59" height=".82"/>
  </g>
  <g id="fill" class="st14">
    <g>
      <rect class="st1" x="5.94" y="5.29" width="9.96" height="13.31" transform="translate(11.16 -4.23) rotate(43.28)"/>
      <circle cx="12.28" cy="9.91" r="1.69"/>
      <path d="M20.36,11.7s1.69,1.04,1.56,3.42-1.97,2.55-2.72,2.47-1.65-1.36-1.03-2.54.97-.93,1.55-1.79.18-1.72.18-1.72c0,0,.16-.03.46.16Z"/>
      <path class="st4" d="M8.12,7.66s-3.09-3.97-1.04-4.97,5.21,4.61,5.21,7.23"/>
    </g>
  </g>
  <g id="gradient" class="st14">
    <rect class="st11" x="2.14" y="4.38" width="18.92" height="14.91"/>
    <rect x="1.71" y="4.38" width="3.39" height="15.08"/>
    <rect x="5.21" y="4.21" width="1.12" height="15.08"/>
    <rect x="6.53" y="4.93" width="1.02" height="15.08"/>
    <rect x="7.77" y="4.93" width=".92" height="15.08"/>
    <rect x="8.89" y="4.8" width=".86" height="15.08"/>
    <rect x="9.94" y="4.6" width=".62" height="15.08"/>
    <rect x="10.84" y="4.6" width=".46" height="15.08"/>
    <rect x="11.6" y="4.52" width=".35" height="15.08"/>
    <rect x="12.23" y="4.8" width=".26" height="15.08"/>
    <rect x="12.78" y="4.8" width=".22" height="15.08"/>
    <rect x="13.21" y="4.8" width=".11" height="15.08"/>
    <rect x="13.55" y="4.8" width=".03" height="15.08"/>
  </g>
  <g id="eyedropper" fill="#FFFFFF">
    <path class="st1" d="M20.24,2.72h0c.76.72.79,1.91.08,2.66l-12.78,13.52-2.5,1.94c-.72.76-1.58,1.14-2.33.43h0c-.76-.72-.64-1.53.08-2.29l2.24-2.91L17.57,2.8c.72-.76,1.91-.79,2.66-.08Z"/>
    <path class="st6" d="M14.57,1.22h3.77v9.12c0,1.04-.84,1.88-1.88,1.88h0c-1.04,0-1.88-.84-1.88-1.88V1.22h0Z" transform="translate(23.8 22.91) rotate(-136.62)"/>
    <rect class="st6" x="8.41" y="7.83" width="11.04" height="3.13" transform="translate(17.6 25.79) rotate(-136.62)"/>
  </g>
  <g id="clone_x5F_stamp" class="st14">
    <g>
      <path d="M2.33,15.72s1.59-1.42,7.54-1.13l.28-4.82s-3.35-.68-3.29-4.54S9.87,1.03,11.29,1.03s4.31.79,4.37,4.03c.06,3.23-1.87,4.54-2.84,4.76.17,2.84.34,4.65.34,4.65,0,0,6.52.17,7.71,1.25v3.91H2.33v-3.91Z"/>
      <rect x="2.33" y="20.94" width="18.54" height="1.7"/>
    </g>
  </g>
  <g id="sharpen" class="st14">
    <polygon points="2.33 22.64 20.87 22.64 11.6 1.03 2.33 22.64"/>
  </g>
  <g id="blur" class="st14">
    <rect x="2.08" y="7.94" width="19.04" height=".7"/>
    <rect x="2.08" y="9.54" width="19.04" height=".7"/>
    <rect x="2.08" y="11.15" width="19.04" height=".7"/>
    <rect x="2.08" y="12.58" width="19.04" height=".7"/>
    <rect x="2.08" y="14.02" width="19.04" height=".7"/>
    <rect x="2.08" y="15.32" width="19.04" height=".7"/>
    <rect x="2.08" y="16.57" width="19.04" height=".7"/>
    <rect x="2.08" y="17.72" width="19.04" height=".7"/>
    <rect x="2.08" y="18.87" width="19.04" height=".7"/>
    <rect x="2.08" y="19.85" width="19.04" height=".7"/>
    <rect x="2.08" y="20.73" width="19.04" height=".7"/>
    <rect x="2.08" y="21.58" width="19.04" height=".7"/>
    <rect x="2.08" y="2.05" width="19.04" height=".7"/>
    <rect x="2.08" y="4.12" width="19.04" height=".7"/>
    <rect x="2.08" y="6.19" width="19.04" height=".7"/>
  </g>
  <g id="smudge" class="st14">
    <path d="M7.82,15.51s.11-3.27,0-4.37-2.08-4.68-2.31-5.6-.25-2.13-.16-2.37.51-.51.72-.47.72.87.81,1.14.58,1.14.58,1.14c0,0,.96,1.14,1.37,2.04s.83,1.3,1.07,1.72.31-.67,0-1.43-.56-.69-.56-.69c0,0,.22-.83,1.05-.78s1.81.78,2.01,1.23.58,1.46.69,1.72.2-.09.2-.09c0,0-.07-.78-.49-1.37.1-.31.83-.25,1.34.27s.81,1.12,1.01,1.81c.22.21.49-.12.43-.32s-.43-.53-.43-.53c0,0,.74-.09,1.14.34s.96,1.43,1.52,3.27.94,3.02,1.07,4.7.27,1.59.27,1.59c0,0,.83,1.28-.51,2.69s-3.81,1.72-4.25,1.77-1.79-.04-2.04-.22-.12-.31-.45-1.1-2.33-1.07-3.34-1.77c-.49-.18-1.46-.45-2.44-1.34-.96-1.77-1.1-2.46-1.48-3.11s.4-2.19.4-2.19l.04-1.25s.72-.16,1.16.4.78,1.28.72,1.77.27,1.05.83,1.41Z"/>
    <path d="M17.39,4.58s-4.13-2.32-10.41-2.35c0-.76,0-1.48,0-1.48l-3.38,2.62,1.77,1.38s.22-.03.07-.24c-.35-.12-.7-.64-.72-.97-.05-.64.4-1.24,1.19-1.28s1.41.69,1.41,1.06-.37,1.21-.5,1.33,2.59-2.18,10.56-.07Z"/>
  </g>
  <g id="burn" class="st14">
    <path d="M14.5,16.62s-.51.92-1.26,1.13-3.92.46-5.73-.71-2.97-2.23-5.09-2.65c-2.12-.42-1.2-1.3-1.19-1.37,0-.03,1.59-.53,2.63-.35s3.98,1.1,4.84.7c1.53-.71,1.42-1.87,1.03-2.73s-4.78-2.05-6.41-1.65c-1.28.31-.76,2.9-1.52,3.2-1.02.4-1.07.12-1.11.02-.14-.31-.23-.72-.17-1.22.15-1.31.07-4.79.34-5.23s1.3-.23,1.3-.23c0,0,0-.87.32-1.12s7.01-.19,7.01-.19c0,0,.98-.4,1.42-.21s.86.92,1.08,1.23,3.93,3.29,4.57,3.66,3.35,2.19,3.55,2.47,3,2.99,3,2.99l-5.27,5.01-3.34-2.76Z"/>
  </g>
  <g id="dodge" class="st14">
    <g>
      <circle cx="15.81" cy="7.23" r="6.59"/>
      <rect x="7.86" y="3.49" width="2.91" height="21.96" rx="1.46" ry="1.46" transform="translate(6.6 31.48) rotate(-138.13)"/>
    </g>
  </g>
  <g id="healing_x5F_brush" class="st14">
    <g>
      <path d="M20.44,3.89c-1.21-.98-2.98-.79-3.96.42l-10.26,12.71c-.98,1.21-.79,2.98.42,3.96s2.98.79,3.96-.42l10.26-12.71c.98-1.21.79-2.98-.42-3.96ZM11.53,14.24l-1.12-.9,1.58-1.96,1.12.9-1.58,1.96ZM14.08,11.08l-1.12-.9,1.58-1.96,1.12.9-1.58,1.96ZM13.32,15.69l-1.12-.9,1.58-1.96,1.12.9-1.58,1.96ZM15.87,12.52l-1.12-.9,1.58-1.96,1.12.9-1.58,1.96Z"/>
      <path class="st10" d="M12.71,17.07c-2.11,2.61-7.68-.71-8.66-4.81-.98-4.11,1.56-8.23,5.67-9.2,4.11-.98,11.86,3.07,8.68,7.01-3.18,3.94-4.3,5.29-5.69,7.01Z"/>
    </g>
  </g>
  <g id="sponge" class="st14">
    <path class="st4" d="M20.76,12.1c0,4.96-8.26,13.01-9.07,8.98S2.62,17.06,2.62,12.1C2.62,8.22,7.73,1.35,10.3,1.32c.72,0,1.24.52,1.39,1.8.71,5.84,9.07,4.02,9.07,8.98Z"/>
    <line class="st4" x1="4.12" y1="7.45" x2="4.11" y2="15.19"/>
    <line class="st4" x1="5.79" y1="4.88" x2="5.77" y2="16.35"/>
    <line class="st4" x1="7.47" y1="17.25" x2="7.49" y2="2.95"/>
    <line class="st4" x1="9.6" y1="18.45" x2="9.36" y2="1.71"/>
    <line class="st4" x1="11.69" y1="21.08" x2="11.51" y2="2.35"/>
    <line class="st4" x1="13.54" y1="21.86" x2="13.39" y2="6.36"/>
    <line class="st4" x1="15.7" y1="20.58" x2="15.57" y2="7.41"/>
    <line class="st4" x1="17.61" y1="8.17" x2="17.72" y2="18.66"/>
    <line class="st4" x1="19.41" y1="9.5" x2="19.48" y2="16.12"/>
    <line class="st4" x1="11.94" y1="3.76" x2="6.72" y2="3.75"/>
    <line class="st4" x1="12.75" y1="5.71" x2="5.2" y2="5.7"/>
    <line class="st4" x1="4.11" y1="7.62" x2="15.25" y2="7.47"/>
    <line class="st4" x1="3.23" y1="9.54" x2="19.04" y2="9.32"/>
    <line class="st4" x1="2.62" y1="11.61" x2="20.5" y2="11.43"/>
    <line class="st4" x1="2.86" y1="13.45" x2="20.5" y2="13.28"/>
    <line class="st4" x1="4.58" y1="15.58" x2="19.89" y2="15.33"/>
    <line class="st4" x1="18.68" y1="17.46" x2="8.19" y2="17.56"/>
    <line class="st4" x1="17.34" y1="19.3" x2="10.72" y2="19.36"/>
  </g>
  <g id="shapes" class="st14">
    <rect class="st4" x="1.95" y="1.84" width="19.61" height="19.61"/>
    <circle class="st4" cx="10.36" cy="9.82" r="3.06"/>
    <polygon class="st4" points="4.14 4.39 7.89 19.28 19.38 6.55 4.14 4.39"/>
  </g>
  <g id="text" class="st14">
    <g>
      <rect class="st7" x="2.36" y="2.38" width="18.84" height="1.75"/>
      <rect class="st7" x="2.02" y="11.8" width="18.84" height="1.75" transform="translate(-1.23 24.11) rotate(-90)"/>
      <rect class="st7" x="1.38" y="2.54" width=".5" height="3.16" transform="translate(2.28 -.26) rotate(30)"/>
      <rect class="st7" x="21.67" y="2.54" width=".5" height="3.16" transform="translate(.87 11.51) rotate(-30)"/>
    </g>
  </g>
  <g id="pen" class="st14">
    <g>
      <polygon class="st4" points="5.94 18.75 4.69 17.27 7.99 8.52 12.74 6.37 17.51 10.65 14.9 15.96 5.94 18.75"/>
      <line class="st0" x1="10.63" y1="12.51" x2="5.37" y2="18.08"/>
      <polygon points="13.1 5.69 18.31 10.32 20.23 8.18 14.91 3.41 13.1 5.69"/>
      <circle cx="10.63" cy="12.51" r="1.14"/>
    </g>
  </g>
</svg>
